<svg id="Capa_1" enable-background="new 0 0 511.999 511.999" height="512" viewBox="0 0 511.999 511.999" width="512" xmlns="http://www.w3.org/2000/svg"><g><g><path clip-rule="evenodd" d="m47.917 484.297v-278.731c3.477-48.416-40.333-128.85-40.39-130.04v408.771c0 11.111 9.098 20.181 20.209 20.181s20.181-9.07 20.181-20.181z" fill="#eff6ff" fill-rule="evenodd"/></g><g><path clip-rule="evenodd" d="m222.913 64.755c-19.727-6.179-54.449-7.88-78.739-13.633-19.019-4.535-40.362-7.256-74.346-38.377-1.36-1.232-2.61-2.567-3.894-3.876-.361-.368-1.314-1.607-1.97-1.316-.504.224-.518 1.291-.56 1.724-.163 1.684-.124 3.395-.124 5.084.198 35.543 10.346 72.588 47.901 97.587 29.563 3.741 128.568 40.965 144.809 59.474 16.269-18.508 115.246-55.732 144.809-59.474 37.556-24.999 47.703-62.044 47.901-97.587.012-1.946.453-4.18-.23-6.055-.437-1.198-1.304-.712-2.02.05-1.4 1.489-2.757 3.008-4.269 4.39-34.013 31.121-55.327 33.842-74.374 38.377-24.291 5.754-59.012 7.454-78.739 13.633-12.641 3.968-23.809 13.151-33.077 26.7-9.269-13.55-20.437-22.733-33.078-26.701z" fill="#fde588" fill-rule="evenodd"/></g><g><path clip-rule="evenodd" d="m314.01 287.309c-12.755-.737-25.736-13.401-38.576-18.616-10.26-4.167-14.852-6.264-19.444-6.264s-9.183 2.097-19.416 6.264c-12.868 5.215-25.85 17.88-38.604 18.616 29.832 12.785 44.599 27.489 53.428 53.428 1.814 5.3 7.398 5.3 9.183 0 8.83-25.939 23.597-40.643 53.429-53.428z" fill="#fde588" fill-rule="evenodd"/></g><g><path clip-rule="evenodd" d="m189.183 115.235c-23.894-2.749-48.44.453-78.002-3.288-13.69-1.757-28.457-4.988-44.727-11.026-17.658-6.519-34.211-13.52-45.067-25.197-7.369-7.936-13.435-10.119-13.86-2.069v1.842.028c.057 1.19.227 2.579.482 4.138 6.916 42.062 18.027 88.574 39.908 125.902 11.366 19.33 25.595 36.223 43.65 48.751 23.44 16.241 63.604 35.458 106.403 32.992 12.755-.737 25.736-3.401 38.604-8.616 10.232-4.167 14.824-6.264 19.416-6.264s9.183 2.097 19.444 6.264c12.84 5.215 25.821 7.88 38.576 8.616 42.828 2.466 82.963-16.751 106.403-32.992 52.89-36.705 73.071-110.795 83.586-174.653 2.409-14.682-4.563-13.463-13.407-3.94-10.856 11.678-27.409 18.678-45.038 25.197-16.298 6.037-31.065 9.268-44.755 11.026-29.563 3.741-54.109.539-78.002 3.288-26.672 0-50.537 11.678-66.807 30.186-16.241-18.508-40.135-30.185-66.807-30.185zm-104.447 36.393c42.601 2.097 67.458 2.381 83.983 6.321 12.415 2.976 27.579 9.353 40.362 21.796 10.912 10.657 20.493 24.092 20.493 34.693 0 20.379-29.364 24.035-49.744 24.035-49.63 0-80.695-44.386-95.094-86.845zm247.414 86.845c-20.379 0-49.744-3.656-49.744-24.035 0-10.601 9.58-24.035 20.493-34.693 12.783-12.443 27.947-18.82 40.362-21.796 16.525-3.94 41.382-4.223 83.983-6.321-14.399 42.459-45.464 86.845-95.094 86.845z" fill="#fe8d94" fill-rule="evenodd"/></g><g><path clip-rule="evenodd" d="m490.592 75.724c-10.856 11.678-27.409 18.678-45.038 25.197-6.859 2.551-13.463 4.592-19.812 6.236-2.551 14.739-5.64 29.931-9.552 44.981 3.543-.142 7.228-.34 11.054-.51-6.406 18.905-16.128 38.207-29.336 53.824-12.755 28.287-30.243 53.258-54.732 70.264-5.584 3.855-12.103 7.908-19.416 11.791 39.086-.652 74.998-18.168 96.653-33.19 52.89-36.705 73.071-110.795 83.586-174.653 2.409-14.682-4.563-13.464-13.407-3.94z" fill="#ff6d75" fill-rule="evenodd"/></g><g><path clip-rule="evenodd" d="m442.181 12.744c-28.344 25.934-47.873 32.142-64.624 36.11-3.004 23.468-11.734 46.455-31.207 65.134 16.751-.17 34.466.482 54.449-2.041 37.556-24.999 47.703-62.044 47.901-97.587.012-1.946.453-4.18-.23-6.055-.437-1.198-1.304-.712-2.02.05-1.4 1.488-2.757 3.007-4.269 4.389z" fill="#fdd76f" fill-rule="evenodd"/></g><g><path clip-rule="evenodd" d="m251.398 340.737c1.814 5.3 7.398 5.3 9.183 0 7.766-22.817 24.659-41.098 53.428-53.428-11.876-.68-23.979-3.033-35.968-7.596-18.452 10.034-30.952 23.015-38.491 38.491 5.187 6.915 9.099 14.426 11.848 22.533z" fill="#fdd76f" fill-rule="evenodd"/></g><g><path clip-rule="evenodd" d="m27.736 504.477c11.111 0 20.181-9.07 20.181-20.181v-97.02-34.608-147.102c-8.078-13.803-14.71-28.854-20.181-44.471z" fill="#d9eeff" fill-rule="evenodd"/></g><g><path d="m170.458 150.654c-13.859-3.304-32.823-4.145-61.528-5.418-7.262-.322-15.177-.673-23.825-1.099-2.473-.131-4.859.991-6.354 2.972-1.495 1.982-1.913 4.575-1.116 6.926 5.893 17.377 16.927 42.261 36.03 62.133 19.011 19.775 41.272 29.802 66.165 29.802 49.806 0 57.243-19.757 57.243-31.535 0-15.52-14.255-31.759-22.761-40.066-14.876-14.478-32.054-20.887-43.854-23.715zm51.616 63.784c0 14.925-29.543 16.536-42.244 16.536-48.013 0-73.65-46.129-84.057-71.314 4.367.201 8.527.385 12.492.561 27.847 1.234 46.243 2.05 58.706 5.021 9.961 2.387 24.445 7.774 36.87 19.869 11.076 10.816 18.233 22.328 18.233 29.327z"/><path d="m426.875 144.138c-8.648.426-16.563.776-23.825 1.099-28.706 1.272-47.67 2.113-61.537 5.419-11.791 2.826-28.968 9.235-43.854 23.724-8.497 8.299-22.752 24.538-22.752 40.058 0 11.777 7.437 31.535 57.243 31.535 24.893 0 47.154-10.027 66.165-29.802 19.104-19.872 30.138-44.757 36.031-62.133.797-2.351.379-4.944-1.116-6.926-1.496-1.984-3.88-3.099-6.355-2.974zm-94.725 86.835c-12.702 0-42.244-1.611-42.244-16.536 0-6.998 7.157-18.51 18.224-29.319 12.434-12.103 26.918-17.49 36.87-19.875 12.471-2.973 30.867-3.789 58.714-5.023 3.966-.176 8.125-.36 12.493-.561-10.407 25.186-36.044 71.314-84.057 71.314z"/><path d="m159.082 77.464c-4.142 0-7.499 3.358-7.499 7.499v.057c0 4.142 3.358 7.471 7.499 7.471s7.499-3.386 7.499-7.528-3.357-7.499-7.499-7.499z"/><path d="m192.386 79.335c-4.142 0-7.499 3.358-7.499 7.499v.057c0 4.142 3.358 7.471 7.499 7.471 4.142 0 7.499-3.386 7.499-7.528.001-4.141-3.357-7.499-7.499-7.499z"/><path d="m352.898 77.464c-4.142 0-7.499 3.358-7.499 7.499v.057c0 4.142 3.358 7.471 7.499 7.471 4.142 0 7.499-3.386 7.499-7.528s-3.357-7.499-7.499-7.499z"/><path d="m319.594 79.335c-4.142 0-7.499 3.358-7.499 7.499v.057c0 4.142 3.358 7.471 7.499 7.471s7.499-3.386 7.499-7.528c0-4.141-3.357-7.499-7.499-7.499z"/><path d="m505.666 62.135c-8.725-4.275-17.639 5.33-20.567 8.482-10.046 10.806-26.329 17.421-42.149 23.271-5.44 2.013-10.689 3.701-15.778 5.121 19.09-21.471 28.833-49.81 29.027-84.609.027-4.991.266-11.341-5.13-13.7-2.77-1.211-5.643-.743-8.084.963-2.21 1.545-3.889 3.74-5.867 5.549-29.702 27.178-69.431 36.23-71.04 36.613-10.729 2.541-23.903 4.311-36.644 6.023-16.085 2.161-31.278 4.202-42.612 7.752-11.453 3.595-21.792 10.802-30.832 21.474-9.04-10.673-19.379-17.88-30.836-21.476-11.33-3.549-26.523-5.59-42.609-7.751-12.741-1.712-39.897-6.782-41.561-7.162-17.076-3.894-36.431-8.309-66.109-35.487-1.985-1.807-3.671-4.001-5.887-5.544-2.443-1.701-5.314-2.166-8.084-.952-5.39 2.364-5.151 8.71-5.124 13.699.194 34.793 9.935 63.129 29.02 84.6-5.08-1.419-10.319-3.105-15.749-5.115-15.824-5.842-32.116-12.451-42.161-23.257-2.925-3.159-11.824-12.778-20.564-8.493-5.654 2.771-6.508 8.946-6.299 13.691v408.47c0 15.263 12.43 27.68 27.708 27.68 15.263 0 27.68-12.417 27.68-27.68v-97.02c0-4.142-3.358-7.499-7.499-7.499s-7.499 3.358-7.499 7.499v97.02c0 6.993-5.689 12.681-12.682 12.681-7.008 0-12.709-5.689-12.709-12.681v-338.086c6.199 20.993 14.363 42.12 25.391 61.331v145.127c0 4.142 3.358 7.499 7.499 7.499s7.499-3.358 7.499-7.499v-122.706c9.077 11.62 19.608 22.002 31.877 30.517 11.358 7.875 34.956 22.213 65.376 29.747 15.112 3.743 29.765 5.284 43.876 4.665 24.797 10.99 40.442 26.781 47.757 48.272 1.882 5.499 6.471 9.046 11.697 9.046h.028c5.23-.013 9.806-3.577 11.653-9.058 7.308-21.47 22.943-37.257 47.721-48.246 2.014.089 4.039.136 6.075.136 12.237 0 24.87-1.604 37.836-4.816 30.418-7.535 54.014-21.872 65.372-29.747 3.404-2.36 4.25-7.033 1.89-10.436s-7.033-4.25-10.436-1.889c-29.308 20.321-72.351 36.907-113.915 30.253-8.083-1.294-27.011-7.903-27.011-7.903-8.796-3.594-13.642-5.574-19.223-5.574-5.595 0-10.452 1.99-19.268 5.601 0 0-15.722 6.716-33.42 8.725-39.485 4.482-79.673-11.834-107.46-31.1-52.445-36.398-70.865-112.415-80.056-167.446l.111.12c12.303 13.235 30.889 19.553 47.955 27.124 30.15 13.376 77.734 13.505 91.441 13.508 11.543.002 22.446.005 33.035 1.223.285.033.571.049.857.049 23.464 0 45.76 10.072 61.17 27.633 1.423 1.622 3.476 2.552 5.633 2.553h.003c2.157 0 4.209-.929 5.633-2.548 15.439-17.565 37.736-27.638 61.173-27.638.287 0 .573-.017.857-.049 10.589-1.218 21.492-1.221 33.036-1.223 9.713-.002 19.906-.157 30.809-.729 9.251-.486 21.97-2.456 25.767-3.152 10.89-1.998 22.469-5.027 34.89-9.624 17.513-6.476 35.64-13.905 47.933-27.129.047-.051.095-.102.142-.151-7.094 42.38-20.43 102.238-53.642 142.785-2.624 3.204-2.155 7.929 1.05 10.554s7.929 2.155 10.554-1.05c36.079-44.048 49.929-107.891 57.209-152.086.598-3.65 2.42-14.75-5.734-18.745zm-266.263 223.503 3.005-1.228c7.054-2.89 10.941-4.482 13.582-4.482 2.635 0 6.512 1.584 13.55 4.46l3.07 1.251c5.844 2.376 11.823 4.3 17.926 5.776-15.976 10.591-27.558 24.088-34.545 40.37-6.99-16.29-18.581-29.793-34.569-40.386 6.118-1.477 12.12-3.379 17.981-5.761zm117.283-179.175c-11.837.002-23.026.005-34.323 1.273-24.857.111-48.605 9.794-66.369 26.844-17.743-17.051-41.493-26.733-66.378-26.844-11.297-1.268-22.485-1.271-34.322-1.273-13.266-.003-26.767-.011-41.385-1.737-26.495-18.231-40.566-44.755-42.812-80.846 29.19 24.908 49.786 29.606 66.553 33.43 1.615.369 29.796 5.643 42.899 7.403 15.433 2.074 30.011 4.032 40.118 7.198 10.872 3.413 20.675 11.413 29.134 23.779 1.398 2.043 3.714 3.265 6.189 3.265 2.476 0 4.792-1.222 6.189-3.265 8.459-12.366 18.262-20.366 29.13-23.777 10.111-3.167 24.689-5.126 40.122-7.199 13.103-1.76 41.27-7.031 42.878-7.397 16.766-3.82 37.358-8.511 66.571-33.414-2.25 36.083-16.321 62.599-42.812 80.827-14.617 1.722-28.117 1.73-41.382 1.733z"/></g></g></svg>
